{
  "asset": {
    "version": "2.0",
    "generator": "Nexo visual test"
  },
  "scene": 0,
  "scenes": [
    {
      "nodes": [0]
    }
  ],
  "nodes": [
    {
      "mesh": 0
    }
  ],
  "meshes": [
    {
      "name": "Blue gold pyramid",
      "primitives": [
        {
          "attributes": {
            "POSITION": 0,
            "TEXCOORD_0": 1
          },
          "indices": 2,
          "material": 0
        }
      ]
    }
  ],
  "materials": [
    {
      "name": "blue_gold_checker",
      "pbrMetallicRoughness": {
        "baseColorTexture": {
          "index": 0
        },
        "roughnessFactor": 0.75,
        "metallicFactor": 0.0
      }
    }
  ],
  "textures": [
    {
      "source": 0
    }
  ],
  "images": [
    {
      "uri": "data:image/png;base64,"
    }
  ],
  "buffers": [
    {
      "uri": "data:application/octet-stream;base64,",
      "byteLength": 136
    }
  ],
  "bufferViews": [
    {
      "buffer": 0,
      "byteOffset": 0,
      "byteLength": 60
    },
    {
      "buffer": 0,
      "byteOffset": 60,
      "byteLength": 40
    },
    {
      "buffer": 0,
      "byteOffset": 100,
      "byteLength": 36
    }
  ],
  "accessors": [
    {
      "bufferView": 0,
      "componentType": 5126,
      "count": 5,
      "type": "VEC3",
      "min": [0, 0, 0],
      "max": [1, 1, 1]
    },
    {
      "bufferView": 1,
      "componentType": 5126,
      "count": 5,
      "type": "VEC2"
    },
    {
      "bufferView": 2,
      "componentType": 5123,
      "count": 18,
      "type": "SCALAR"
    }
  ]
}
